PathFileType	4	(X/Y/Z)	s01c0102.trc
DataRate	CameraRate	NumFrames	NumMarkers	Units	OrigDataRate	OrigDataStartFrame	OrigNumFrames
200	200	6	48	mm	200	1250	2000
Frame#	Time	racr			lacr			c7			jug			rlel			rdr			llel			ldr			s2			lic			ric			lasi			rasi			rpsi			lpsi			rgt			lgt			rth1			rth2			rth3			rth4			rlfc			rsh1			rsh2			rsh3			rsh4			rlmal			rmmal			rcal			rtoe			rmt5			lth1			lth2			lth4			lth3			llfc			lsh1			lsh2			lsh3			lsh4			llmal			lmmal			lcal			ltoe			lmt5			SBIKE			LBIKE			RBIKE			
		X1	Y1	Z1	X2	Y2	Z2	X3	Y3	Z3	X4	Y4	Z4	X5	Y5	Z5	X6	Y6	Z6	X7	Y7	Z7	X8	Y8	Z8	X9	Y9	Z9	X10	Y10	Z10	X11	Y11	Z11	X12	Y12	Z12	X13	Y13	Z13	X14	Y14	Z14	X15	Y15	Z15	X16	Y16	Z16	X17	Y17	Z17	X18	Y18	Z18	X19	Y19	Z19	X20	Y20	Z20	X21	Y21	Z21	X22	Y22	Z22	X23	Y23	Z23	X24	Y24	Z24	X25	Y25	Z25	X26	Y26	Z26	X27	Y27	Z27	X28	Y28	Z28	X29	Y29	Z29	X30	Y30	Z30	X31	Y31	Z31	X32	Y32	Z32	X33	Y33	Z33	X34	Y34	Z34	X35	Y35	Z35	X36	Y36	Z36	X37	Y37	Z37	X38	Y38	Z38	X39	Y39	Z39	X40	Y40	Z40	X41	Y41	Z41	X42	Y42	Z42	X43	Y43	Z43	X44	Y44	Z44	X45	Y45	Z45	X46	Y46	Z46	X47	Y47	Z47	X48	Y48	Z48	
1250	6.2500	524.059265	1330.701904	-117.752083	526.140747	1301.676392	-422.499390	480.089111	1396.072144	-267.182678	469.861115	1235.344849	-265.023804	585.868530	1070.801392	-7.409391	737.224854	859.146484	-58.040699	530.188232	1035.831177	-537.476562	718.114075	886.552307	-432.282104	-53.210899	1176.984131	-235.775726	104.543068	1202.906616	-422.555664	116.398903	1180.679077	-92.757385	111.577927	1151.040527	-394.149963	140.716232	1133.057495	-114.900192	-21.205284	1215.672363	-184.160873	-32.660110	1224.423218	-288.168579	54.786858	1058.338257	-63.252502	67.883598	1088.231079	-448.144501	117.254242	945.783936	-40.098961	161.414093	875.784668	-42.016556	204.458115	796.716553	-48.122944	210.398346	903.003662	-49.261078	235.026871	686.554810	-72.740288	195.373642	577.882019	-43.757946	183.125488	494.167847	-49.225155	162.610245	408.116943	-61.303596	234.653122	485.977783	-79.609970	132.861237	294.215790	-83.998627	172.378235	299.177368	-158.266037	90.563019	299.771423	-138.675278	300.446655	127.604759	-137.439911	199.821533	159.359329	-63.422291	172.080444	1026.816284	-451.830597	260.903412	1023.845520	-455.666565	264.847748	1077.321167	-444.613251	345.344025	1011.088318	-446.077545	431.698242	968.262329	-443.694305	369.999847	891.201782	-447.551025	326.560486	815.178162	-444.032623	282.443970	742.702637	-428.097382	376.668304	789.179749	-419.402832	209.383041	604.959412	-407.235382	239.986298	616.537476	-326.973236	151.735489	596.746948	-363.219910	405.447632	488.804840	-371.087616	299.278229	504.562866	-436.558319	-224.433594	893.700256	-251.195023	-12.686444	84.959778	-455.781982	-21.556852	80.837799	-55.602360	
1251	6.2550	524.190430	1330.006836	-117.797905	525.886719	1301.204102	-422.894379	480.269806	1395.785889	-267.146423	469.497131	1235.138794	-264.917114	585.616577	1070.392456	-6.719419	737.250122	858.978455	-57.867298	528.326538	1035.188843	-537.499695	717.735413	887.063416	-432.530518	-53.736515	1179.540283	-235.285568	104.644875	1206.327393	-423.503754	115.606285	1181.979004	-92.078285	110.678345	1153.449341	-393.641144	139.766907	1134.144897	-114.333206	-21.566664	1217.882446	-183.463913	-33.034569	1227.050537	-287.413300	53.683319	1059.980713	-62.919792	66.774315	1091.115112	-447.129608	117.836601	947.165710	-40.546478	163.031540	877.892212	-42.821262	207.291321	799.369080	-49.711048	211.421127	905.784485	-50.103172	238.083206	689.781372	-73.666176	196.376404	581.744507	-44.755787	182.445175	498.369843	-50.382118	160.131302	412.899902	-62.361019	233.569534	489.207764	-81.050728	127.302368	299.813995	-84.636032	167.285294	303.196411	-158.997513	85.013626	306.255890	-139.234390	290.363983	128.329437	-137.597015	190.762497	163.425735	-63.936890	170.897812	1027.973877	-450.672424	259.610809	1023.997986	-453.778473	264.283539	1077.322388	-442.191559	344.122009	1010.716003	-444.656403	429.654602	967.326355	-440.208038	369.718079	887.636597	-444.704865	327.278839	810.696533	-442.180786	284.273834	737.686951	-427.402588	377.922546	785.375305	-417.832245	214.413727	598.452454	-406.913635	244.174408	610.523071	-326.848694	156.382889	587.557617	-363.851685	414.163971	489.343842	-371.156616	307.565918	500.714935	-437.518341	-224.459885	893.677307	-251.352081	-12.688974	84.950821	-455.802948	-21.577791	80.892723	-55.615063	
1252	6.2600	524.255310	1329.344971	-117.944649	525.534058	1300.524902	-423.529938	480.332703	1395.459839	-267.119934	469.099823	1234.651245	-264.688965	585.426819	1069.954346	-6.114699	737.204651	858.772461	-57.688545	526.874695	1034.446655	-537.422607	717.421997	887.371582	-432.646881	-54.106789	1181.913452	-234.718124	103.890701	1209.064575	-423.494476	115.026085	1183.218750	-91.290451	110.043686	1155.437744	-393.189606	137.852493	1135.672119	-114.799393	-21.980341	1220.039795	-182.823822	-33.270653	1229.469727	-286.640808	52.627247	1061.569702	-62.429066	65.515175	1093.954102	-446.018097	118.686256	948.542419	-40.919601	165.049683	880.012756	-43.728046	210.590363	802.200500	-51.281727	212.802933	908.614014	-51.065449	241.764359	693.223267	-74.807602	197.796143	585.900818	-45.808800	182.029190	502.854279	-51.596870	157.756851	417.848633	-63.665535	232.722733	492.570984	-82.731949	121.732689	305.755951	-85.351028	161.833694	307.790039	-160.031006	79.428085	312.841736	-140.348068	280.471008	129.915771	-137.741928	181.765594	168.012390	-64.544060	169.384003	1028.396240	-449.487152	257.992645	1023.185913	-451.914337	263.384888	1076.594116	-440.474579	342.142456	1008.591431	-441.369629	427.469879	965.385498	-436.642212	369.058075	882.839600	-442.323120	328.066315	805.407715	-440.638336	286.064423	731.308472	-426.778198	378.965790	780.373535	-416.333923	219.404861	591.192078	-406.540863	248.266678	603.676758	-326.707214	161.048752	577.577087	-364.466553	422.451141	489.087006	-371.432495	315.391968	496.278992	-438.092743	-224.458969	893.648071	-251.499771	-12.700610	84.947556	-455.825775	-21.635546	80.986122	-55.671860	
1253	6.2650	524.330750	1327.737427	-120.121323	525.352356	1299.935303	-423.780884	480.298798	1395.188477	-267.119812	468.778168	1233.818726	-264.438843	585.311584	1069.508911	-5.670082	737.151978	858.562256	-57.459507	525.736572	1033.603516	-537.365845	717.170288	887.602356	-432.597900	-54.438946	1184.200439	-234.115372	103.262779	1211.604858	-423.390594	114.264259	1184.429199	-90.664070	109.535431	1157.151978	-392.784821	136.975891	1136.918457	-114.195190	-22.364313	1222.082275	-182.112076	-33.454929	1231.755493	-285.968262	51.709831	1062.997681	-61.926472	64.225716	1096.520142	-444.922821	119.829582	949.804871	-41.332150	167.286972	882.163513	-44.785061	214.171661	805.260742	-52.646553	214.460220	911.701904	-52.165943	245.522446	696.811279	-76.195274	199.654694	590.127502	-46.950161	181.822388	507.543549	-52.858768	155.488388	423.150513	-64.898849	231.954010	496.153687	-84.583000	116.081558	312.160370	-86.309334	156.116852	312.728851	-161.534119	73.722252	319.822662	-141.686356	270.725128	132.286850	-137.787613	172.903748	173.203888	-65.051926	167.734970	1028.099609	-448.303650	256.203186	1021.462219	-449.850189	262.339752	1074.934082	-439.028687	339.976379	1005.729309	-438.800018	425.153656	962.433838	-433.096069	368.235077	876.873718	-440.422363	328.573486	798.971375	-439.356750	287.784760	723.901428	-426.212677	379.805603	774.468018	-414.952942	224.358749	583.222778	-406.112457	252.289871	596.046936	-326.534821	165.760925	566.889526	-365.019501	430.398651	488.180573	-371.587372	323.252228	490.781647	-438.540802	-224.433609	893.613098	-251.618637	-12.671127	84.918182	-455.854614	-21.568525	80.935394	-55.674030	
1254	6.2700	524.359619	1327.112671	-120.238487	525.175049	1299.333618	-423.942078	480.163788	1394.959595	-267.061554	468.474701	1233.166260	-264.319427	585.235352	1069.037476	-5.277577	737.108948	858.351868	-57.258839	524.989319	1032.625854	-537.204834	716.966675	887.829651	-432.461823	-54.838734	1186.415649	-233.463181	103.001801	1213.838867	-423.304413	113.561195	1185.599731	-90.142693	109.169884	1158.465332	-392.403259	135.951538	1138.446899	-112.567497	-22.692804	1224.015381	-181.409866	-33.587875	1233.885620	-285.296417	50.876419	1064.243652	-61.347656	62.915142	1098.720947	-443.841461	121.135719	951.131531	-41.736885	169.776306	884.450195	-45.908577	217.956207	808.462952	-54.033413	216.271210	914.701355	-53.531792	249.950150	700.486572	-77.621597	201.698883	594.546082	-48.152573	181.784927	512.391479	-54.125294	153.259811	428.720642	-66.115135	231.240265	499.988892	-86.483086	110.145226	318.765717	-87.945808	150.459106	318.054199	-163.062988	68.005913	326.961304	-143.083359	261.276276	135.484695	-137.750305	164.250595	178.894409	-65.694221	165.753082	1027.278320	-447.034821	254.191223	1019.547119	-448.774017	261.123596	1072.569458	-437.545685	337.600006	1002.115784	-436.789520	422.715485	958.465454	-429.668884	367.204071	869.954590	-439.100159	328.823975	791.125610	-438.037170	289.526062	715.497437	-425.482056	380.540527	767.452271	-413.488861	229.269226	574.597778	-405.628632	256.263855	587.695068	-326.320709	170.533585	555.591248	-365.474030	437.961823	486.405334	-371.714111	330.888580	484.625122	-438.974823	-224.379501	893.574402	-251.701492	-12.659557	84.877380	-455.882355	-21.554747	80.948158	-55.717724	
1255	6.2750	524.297119	1326.616577	-120.294868	525.014648	1298.934570	-424.029663	479.973145	1394.732300	-266.941315	468.098511	1232.512451	-264.110321	585.237793	1068.633423	-4.943154	737.105530	858.135437	-57.117756	524.524597	1031.801392	-536.998413	716.858337	888.040649	-432.325073	-55.162525	1188.481323	-232.809723	102.845932	1215.757324	-423.085022	112.780533	1186.709351	-89.676765	108.777794	1159.304199	-391.919586	135.057266	1139.602783	-111.978569	-22.939722	1225.685425	-180.791153	-33.681232	1235.843872	-284.719269	50.201416	1065.391235	-60.789524	61.643333	1100.367676	-442.733826	122.696648	952.597717	-42.157860	172.604355	886.829407	-47.128109	221.973709	811.725281	-55.572208	218.288635	917.862610	-55.039303	254.574127	704.235779	-79.153305	203.925140	599.045471	-49.283718	181.816879	517.518188	-55.274467	150.958450	434.606964	-67.330765	230.488724	503.943146	-88.337448	104.278671	325.925751	-89.046875	144.911789	323.737122	-164.464447	62.297752	334.467163	-144.586639	252.188095	139.511810	-137.648788	155.682236	185.138290	-66.251221	163.789688	1025.970947	-445.774597	251.964981	1016.550842	-447.132050	259.807678	1069.548706	-436.196777	334.990295	997.752869	-434.997650	420.164978	953.474365	-426.459869	366.066284	861.926147	-437.952667	329.226135	782.547302	-436.871521	291.308319	706.084106	-424.650055	381.258301	759.793640	-412.263733	234.120377	565.378723	-405.095398	260.199738	578.693176	-326.058868	175.367233	543.789246	-365.805115	445.135223	483.818787	-371.929626	338.653381	477.475037	-439.195709	-224.303101	893.527466	-251.745819	-12.631053	84.924240	-455.831146	-21.504086	80.931007	-55.709370	
